<?xml version="1.0" standalone="no"?>
<svg viewBox="0 0 200 200" xmlns="http://www.w3.org/2000/svg">
  <path fill="#0F62FE" d="M36.9,-54.4C48,-50.4,57.1,-40.3,64,-28.3C70.8,-16.3,75.4,-2.4,74.5,11.4C73.5,25.2,67,38.8,57.4,49.5C47.7,60.1,34.9,67.8,22.3,67.8C9.6,67.9,-3,60.3,-18.7,58.2C-34.4,56.1,-53.3,59.3,-61.8,52.1C-70.3,44.9,-68.3,27.2,-64.1,13.2C-59.8,-0.7,-53.2,-11,-51,-26.3C-48.7,-41.6,-50.8,-61.9,-43,-67.4C-35.2,-73,-17.6,-63.7,-2.3,-60.1C13,-56.5,25.9,-58.5,36.9,-54.4Z" transform="translate(100 100)" />
</svg>
